<svg xmlns="http://www.w3.org/2000/svg" xmlns:xlink="http://www.w3.org/1999/xlink" version="1.1" x="0px" y="0px"
    viewBox="0 0 50 50" enable-background="new 0 0 50 50" xml:space="preserve">
    <path
        d="M43.236,14.321H30.102c-0.414,0-0.75,0.336-0.75,0.75v3.834c-0.334-0.092-0.68-0.139-1.033-0.139  c-2.146,0-3.893,1.746-3.893,3.893c0,2.145,1.746,3.891,3.893,3.891c0.346,0,0.695-0.049,1.033-0.143v3.088h-4.25  c-0.277,0-0.531,0.152-0.662,0.398c-0.129,0.244-0.115,0.541,0.041,0.771c0.275,0.408,0.428,0.893,0.428,1.363  c0,1.318-1.072,2.393-2.393,2.393c-1.318,0-2.393-1.074-2.393-2.393c0-0.49,0.146-0.959,0.422-1.355  c0.158-0.229,0.178-0.527,0.047-0.775c-0.129-0.248-0.385-0.402-0.664-0.402H14.93c-0.414,0-0.75,0.336-0.75,0.75V43.38  c0,1.537,1.25,2.787,2.787,2.787h26.27c1.537,0,2.789-1.25,2.789-2.787V17.11C46.025,15.573,44.773,14.321,43.236,14.321z   M29.754,39.755c-0.246,0.129-0.402,0.385-0.402,0.664v4.248H16.967c-0.709,0-1.287-0.576-1.287-1.287V30.995h3.082  c-0.092,0.334-0.139,0.68-0.139,1.033c0,2.146,1.746,3.893,3.893,3.893s3.893-1.746,3.893-3.893c0-0.346-0.049-0.695-0.145-1.033  h3.088v4.176c0,0.277,0.154,0.531,0.398,0.662c0.244,0.129,0.543,0.113,0.771-0.041c0.344-0.23,0.814-0.354,1.363-0.354  c1.32,0,2.393,1.072,2.393,2.393c0,1.318-1.072,2.393-2.393,2.393c-0.488,0-0.957-0.146-1.355-0.422  C30.299,39.644,30.002,39.626,29.754,39.755z M44.525,43.38c0,0.711-0.578,1.287-1.289,1.287H30.852v-3.082  c0.334,0.092,0.682,0.139,1.033,0.139c2.146,0,3.893-1.746,3.893-3.893s-1.746-3.893-3.893-3.893c-0.361,0-0.709,0.039-1.033,0.113  v-3.057h4.176c0.277,0,0.531-0.152,0.662-0.398c0.131-0.244,0.115-0.541-0.041-0.771c-0.23-0.342-0.352-0.814-0.352-1.363  c0-1.32,1.072-2.393,2.391-2.393c1.32,0,2.393,1.072,2.393,2.393c0,0.488-0.146,0.957-0.422,1.357  c-0.158,0.229-0.176,0.527-0.047,0.773c0.129,0.248,0.385,0.402,0.664,0.402h4.25V43.38z M44.525,29.495h-3.084  c0.092-0.334,0.139-0.68,0.139-1.033c0-2.146-1.746-3.893-3.893-3.893c-2.145,0-3.891,1.746-3.891,3.893  c0,0.361,0.037,0.709,0.113,1.033h-3.059v-4.25c0-0.277-0.152-0.531-0.396-0.662c-0.246-0.131-0.541-0.115-0.771,0.039  c-0.41,0.277-0.895,0.428-1.365,0.428c-1.318,0-2.393-1.072-2.393-2.391c0-1.32,1.074-2.393,2.393-2.393  c0.49,0,0.959,0.146,1.357,0.422c0.23,0.158,0.529,0.176,0.775,0.047s0.4-0.385,0.4-0.664v-4.25h12.385  c0.711,0,1.289,0.578,1.289,1.289V29.495z" />
    <path
        d="M7.908,21.521c-0.24,1.01-0.072,2.055,0.473,2.939c0.547,0.887,1.404,1.506,2.416,1.744c0.297,0.07,0.6,0.107,0.9,0.107  c1.811,0,3.367-1.232,3.785-2.996c0.08-0.336,0.111-0.686,0.098-1.037l3.734,0.885c0.4,0.096,0.809-0.154,0.902-0.557l1.154-4.865  c0.064-0.27-0.025-0.553-0.234-0.736c-0.207-0.182-0.5-0.234-0.758-0.137c-0.455,0.17-0.973,0.207-1.428,0.1  c-0.621-0.146-1.148-0.527-1.484-1.072c-0.334-0.543-0.438-1.186-0.291-1.807c0.299-1.266,1.594-2.078,2.881-1.775  c0.477,0.113,0.898,0.363,1.221,0.723c0.188,0.207,0.473,0.297,0.744,0.225c0.27-0.068,0.48-0.281,0.545-0.553l1.152-4.863  c0.096-0.404-0.152-0.809-0.557-0.902L10.383,3.909c-0.211-0.049-0.43-0.076-0.645-0.076c-1.297,0-2.412,0.883-2.711,2.146  L3.996,18.759c-0.096,0.402,0.152,0.807,0.557,0.902l3.729,0.885C8.115,20.849,7.99,21.175,7.908,21.521z M5.629,18.376L8.486,6.325  c0.16-0.682,0.857-1.121,1.551-0.957l12.049,2.859l-0.711,3c-0.303-0.166-0.629-0.293-0.973-0.373  c-0.297-0.07-0.6-0.107-0.902-0.107c-1.809,0-3.365,1.232-3.783,2.994c-0.24,1.012-0.072,2.057,0.475,2.941  c0.545,0.887,1.404,1.506,2.414,1.744c0.336,0.08,0.688,0.117,1.039,0.1l-0.713,3.004l-4.135-0.98  c-0.268-0.064-0.553,0.025-0.736,0.234s-0.236,0.5-0.139,0.76c0.174,0.463,0.211,0.967,0.102,1.426  c-0.258,1.084-1.215,1.842-2.326,1.842c-0.186,0-0.371-0.021-0.555-0.066c-0.621-0.146-1.148-0.527-1.484-1.072  c-0.334-0.543-0.438-1.186-0.291-1.807c0.113-0.479,0.363-0.9,0.723-1.223c0.207-0.186,0.295-0.473,0.227-0.742  c-0.068-0.271-0.283-0.48-0.555-0.545L5.629,18.376z" />
    <path
        d="M27.152,12.442c0.023,0,0.047-0.002,0.072-0.004c0.412-0.039,0.715-0.404,0.676-0.816l-0.438-4.678  c-0.039-0.412-0.396-0.715-0.818-0.678c-0.412,0.039-0.715,0.406-0.676,0.818l0.438,4.678C26.443,12.151,26.77,12.442,27.152,12.442  z" />
    <path
        d="M29.082,12.173c0.121,0.074,0.256,0.109,0.389,0.109c0.254,0,0.5-0.129,0.641-0.361l2.258-3.719  c0.215-0.355,0.104-0.816-0.252-1.031c-0.354-0.215-0.814-0.104-1.029,0.252l-2.258,3.721  C28.615,11.497,28.729,11.958,29.082,12.173z" />
    <path
        d="M13.518,28.13c-0.059-0.41-0.438-0.699-0.85-0.637l-5.25,0.75c-0.41,0.059-0.695,0.438-0.637,0.848  c0.055,0.375,0.375,0.645,0.742,0.645c0.035,0,0.072-0.002,0.107-0.008l5.25-0.75C13.291,28.919,13.576,28.54,13.518,28.13z" />
    <path
        d="M12.23,29.729l-2,2.115c-0.285,0.301-0.271,0.775,0.029,1.061c0.145,0.137,0.33,0.205,0.516,0.205  c0.197,0,0.396-0.078,0.545-0.234l2-2.115c0.285-0.301,0.27-0.775-0.029-1.061C12.99,29.417,12.514,29.427,12.23,29.729z" />
    <style>
        path {
            fill: #fbca08;
        }
    </style>
</svg>