<svg xmlns="http://www.w3.org/2000/svg" xmlns:xlink="http://www.w3.org/1999/xlink" version="1.1" x="0px" y="0px"
    viewBox="0 0 100 125" style="enable-background:new 0 0 100 100;" xml:space="preserve">
    <g fill="#fbca08">
    <path
        d="M64.3,41.8c-6.5,0-12.7,2.6-17.3,7.2c-4.2,4.2-6.7,9.7-7.1,15.6l0,0.2l-0.8,0c-0.9,0-1.7,0.7-1.7,1.7c0,0.5,0.2,0.9,0.5,1.2  c0.3,0.3,0.7,0.5,1.2,0.5l0.8,0l0,0.2c0.4,5.8,3,11.3,7.1,15.4c4.6,4.6,10.8,7.2,17.3,7.2c5.2,0,10.2-1.6,14.4-4.7l0.7-0.5  l12.5,12.5c0.6,0.6,1.3,0.9,2.1,0.9c0.8,0,1.6-0.3,2.1-0.9c0.6-0.6,0.9-1.3,0.9-2.1c0-0.8-0.3-1.6-0.9-2.1v0L83.7,81.4l0.5-0.7  c1.6-2.3,2.9-4.7,3.7-7.4l0-0.1H89c0.9,0,1.7-0.8,1.7-1.7c0-0.9-0.8-1.7-1.7-1.7h-0.3l0-0.2c1-7.6-1.5-15.1-7-20.6  C77,44.3,70.9,41.8,64.3,41.8z M84,73.4c-1,2.9-2.7,5.5-4.9,7.7c-3.9,3.9-9.2,6.1-14.8,6.1c-5.6,0-10.8-2.2-14.8-6.1  c-3.5-3.5-5.5-7.9-6-12.7l0-0.2l8.8,0.2c0.7,0,1.3-0.4,1.6-1l3.9-9.2l3.9,22.4c0.1,0.7,0.7,1.3,1.5,1.4c0.7,0.1,1.5-0.3,1.8-1  l6-13.2l2.5,4.5c0.3,0.5,0.9,0.9,1.5,0.9h9.2L84,73.4z M84.9,69.6l0,0.1h-9.1l-3.6-6.6c-0.3-0.5-0.9-0.9-1.5-0.9c0,0,0,0,0,0  c-0.6,0-1.2,0.4-1.5,1l-5.1,11.3l-4-22.6c-0.1-0.7-0.7-1.3-1.5-1.4c-0.7-0.1-1.5,0.3-1.8,1L51.2,65l-0.1,0l-7.6-0.2l0-0.2  c0.4-4.9,2.5-9.6,6-13.1c3.9-3.9,9.2-6.1,14.8-6.1c5.6,0,10.8,2.2,14.8,6.1C83.8,56.2,86,63,84.9,69.6z" />
    <path
        d="M42.2,99.1H6.6c-1,0-1.9-0.8-1.9-1.9V2.9c0-1,0.8-1.9,1.9-1.9h59.7c0.5,0,1,0.2,1.3,0.5l17.3,16.9  c0.4,0.4,0.6,0.8,0.6,1.4v17.3c0,1-0.8,1.9-1.9,1.9s-1.9-0.8-1.9-1.9V20.6L65.5,4.8H8.4v90.5h33.7c1,0,1.9,0.8,1.9,1.9  C44.1,98.3,43.2,99.1,42.2,99.1z" />
    <path d="M19.6,33.4h39.9c1.2,0,2.2-1,2.2-2.2s-1-2.2-2.2-2.2H19.6c-1.2,0-2.2,1-2.2,2.2S18.4,33.4,19.6,33.4z" />
    <path
        d="M19.8,21.3h39.9c1.2,0,2.2-1,2.2-2.2c0-1.2-1-2.2-2.2-2.2H19.8c-1.2,0-2.2,1-2.2,2.2  C17.6,20.4,18.6,21.3,19.8,21.3z" />
    <path
        d="M19.8,45.7h23.3c1.2,0,2.2-1,2.2-2.2c0-1.2-1-2.2-2.2-2.2H19.8c-1.2,0-2.2,1-2.2,2.2  C17.6,44.7,18.6,45.7,19.8,45.7z" />
    <path
        d="M34.3,58.5H19.7c-1.2,0-2.2-1-2.2-2.2c0-1.2,1-2.2,2.2-2.2h14.6c1.2,0,2.2,1,2.2,2.2  C36.5,57.5,35.5,58.5,34.3,58.5z" />
    </g>
</svg>